<?xml version="1.0" standalone="no"?>
<!DOCTYPE svg PUBLIC "-//W3C//DTD SVG 20010904//EN"
 "http://www.w3.org/TR/2001/REC-SVG-20010904/DTD/svg10.dtd">
<svg version="1.0" xmlns="http://www.w3.org/2000/svg"
 width="1024.000000pt" height="1024.000000pt" viewBox="0 0 1024.000000 1024.000000"
 preserveAspectRatio="xMidYMid meet">

<g transform="translate(0.000000,1024.000000) scale(0.100000,-0.100000)"
fill="#000000" stroke="none">
<path d="M0 5120 l0 -5120 5120 0 5120 0 0 5120 0 5120 -5120 0 -5120 0 0
-5120z m7636 3605 c159 -24 248 -50 369 -109 288 -140 509 -372 620 -651 43
-109 82 -278 95 -415 8 -93 10 -744 8 -2510 -4 -2661 2 -2440 -73 -2667 -150
-450 -521 -776 -970 -852 -164 -28 -370 -30 -2585 -32 -2394 -1 -2379 -1
-2593 42 -365 73 -683 331 -857 694 -50 103 -74 180 -106 335 -25 123 -26 135
-34 745 -12 891 -12 4035 0 4172 35 398 162 684 404 911 132 123 289 219 451
275 85 29 142 42 325 70 14 3 1109 5 2434 6 2123 1 2421 -1 2512 -14z"/>
<path d="M4319 7960 c-229 -36 -467 -135 -640 -265 -164 -123 -339 -328 -426
-499 -49 -96 -93 -225 -116 -340 -13 -63 -26 -118 -29 -121 -3 -3 -55 -19
-116 -35 -138 -36 -200 -67 -274 -138 -72 -69 -131 -180 -147 -279 -9 -49 -11
-478 -9 -1568 l3 -1500 23 -70 c29 -86 72 -165 124 -227 21 -27 36 -48 31 -48
-16 1 -85 96 -119 165 -50 101 -64 164 -71 311 l-6 131 -41 -9 c-63 -13 -254
-78 -323 -109 -34 -15 -87 -44 -118 -63 -59 -38 -74 -44 -57 -23 8 10 6 16 -9
25 -11 7 -19 8 -19 2 0 -5 4 -10 10 -10 23 0 0 -39 -58 -97 -82 -81 -112 -145
-112 -237 0 -38 -3 -67 -6 -64 -10 11 -6 118 7 156 7 20 24 55 38 77 14 22 24
44 23 48 -1 5 1 6 6 3 5 -3 28 14 51 38 25 26 36 43 27 43 -8 0 -13 -4 -11 -8
6 -8 -19 -19 -43 -19 -15 1 -15 2 1 15 18 13 18 14 -2 25 -13 6 -19 16 -14 23
4 7 -1 6 -11 -2 -13 -11 -20 -11 -28 -3 -7 7 -20 12 -30 12 -10 0 -18 5 -18
10 0 6 -9 10 -20 10 -11 0 -20 4 -20 9 0 8 -38 23 -64 25 -5 1 -12 8 -15 16
-3 8 -15 16 -26 18 -19 2 -19 2 -2 -12 17 -13 17 -14 -2 -19 -14 -3 -18 -1
-14 9 4 12 0 12 -20 5 -30 -11 -53 8 -43 35 4 11 2 15 -7 11 -8 -3 -14 1 -14
9 0 7 6 15 14 18 12 5 17 -8 16 -42 -1 -8 5 -11 14 -8 8 3 11 1 8 -4 -3 -6 1
-10 10 -10 9 0 14 4 11 8 -5 8 8 12 46 13 9 0 15 6 12 13 -3 7 -15 12 -26 11
-22 -2 -78 22 -78 32 0 3 6 3 13 0 6 -2 18 2 25 9 17 18 8 18 -34 -2 -39 -19
-53 -13 -33 13 13 17 13 17 -4 4 -10 -8 -16 -22 -14 -33 3 -10 1 -18 -3 -18
-5 0 -9 84 -10 187 0 102 -3 189 -6 192 -3 3 -4 -242 -1 -544 4 -591 5 -609
62 -830 58 -225 212 -475 385 -622 189 -162 372 -247 625 -290 92 -16 284 -18
2440 -20 2043 -3 2360 -2 2500 12 235 22 364 59 530 153 343 193 543 481 632
909 14 69 16 231 17 1473 l2 1395 -6 -1270 c-3 -698 -7 -1157 -9 -1020 -1 138
-6 239 -10 225 l-7 -25 -6 27 c-3 15 -2 25 3 23 4 -3 10 -1 13 4 8 12 -7 22
-20 13 -6 -4 -15 -15 -21 -26 -8 -15 -11 -16 -16 -3 -3 9 4 19 19 27 13 8 24
17 24 22 0 5 -10 3 -22 -3 -27 -15 -28 -15 -39 3 -7 10 -9 10 -9 0 0 -7 -5
-10 -12 -6 -7 4 -8 3 -4 -5 4 -6 12 -9 17 -6 5 4 9 -4 9 -17 0 -16 -3 -19 -9
-10 -6 10 -10 9 -14 -7 -6 -26 -35 -38 -50 -21 -9 10 -9 11 2 5 9 -5 12 -3 9
6 -5 16 -28 19 -45 6 -7 -5 -18 -5 -25 -1 -7 4 -5 -2 5 -12 15 -16 19 -17 27
-4 8 13 10 12 10 -2 0 -10 -5 -18 -11 -18 -5 0 -7 -5 -4 -10 4 -6 3 -10 -2 -9
-19 3 -33 -2 -33 -12 0 -5 4 -8 9 -4 5 3 12 1 15 -4 4 -5 2 -13 -4 -16 -14 -9
-42 14 -34 27 6 9 -34 2 -45 -8 -7 -6 21 -34 33 -34 6 0 2 7 -8 15 -16 12 -16
15 -4 15 8 0 23 -9 34 -21 10 -11 14 -20 9 -19 -25 5 -46 -1 -39 -12 4 -7 3
-8 -5 -4 -6 4 -18 2 -26 -4 -11 -9 -18 -9 -30 4 -9 9 -24 16 -33 15 -11 0 -8
-4 8 -10 l25 -10 -34 -16 c-28 -14 -36 -14 -55 -3 -21 13 -21 13 -2 -8 10 -12
23 -19 29 -15 5 3 7 1 4 -4 -8 -13 17 -36 27 -25 4 4 6 2 5 -3 -2 -6 9 -30 23
-55 34 -57 58 -125 57 -159 -1 -17 -4 -11 -10 19 -14 72 -56 146 -121 210 -34
33 -58 60 -53 60 4 0 2 7 -5 15 -7 9 -20 13 -28 10 -7 -3 -26 3 -40 14 -79 55
-336 159 -459 186 l-32 6 -4 -103 c-1 -57 -4 42 -5 220 l-2 322 50 0 c28 0 67
7 87 15 43 18 46 18 37 3 -4 -7 -3 -8 5 -4 6 4 9 11 6 15 -5 9 43 58 52 53 2
-2 8 0 11 4 4 4 1 4 -5 0 -16 -9 -16 -6 2 37 12 30 15 104 15 439 l0 403 -25
52 c-34 74 -131 140 -207 142 l-28 1 0 130 c0 194 -34 329 -114 446 l-26 39 0
375 c0 421 -4 452 -67 574 -67 128 -216 250 -348 285 -56 14 -262 20 -741 20
l-411 1 -23 63 c-164 451 -584 810 -1089 929 -67 16 -129 21 -286 23 -110 2
-225 0 -256 -5z m442 -164 c371 -60 693 -268 903 -584 83 -124 116 -202 157
-363 54 -219 50 -375 -16 -570 -24 -71 -102 -226 -133 -266 l-17 -22 -472 6
-473 6 0 22 c0 18 7 24 40 29 82 13 153 48 206 101 49 48 104 138 104 167 0 7
-11 -10 -24 -39 -28 -60 -94 -135 -149 -170 -22 -14 -73 -32 -115 -41 -74 -16
-77 -18 -77 -46 l0 -29 -605 -1 -604 0 -28 39 c-42 62 -123 231 -153 320 -40
116 -45 252 -16 405 56 293 165 499 362 685 214 202 447 313 749 359 64 9 284
5 361 -8z m2366 -1055 c87 -41 161 -114 201 -198 26 -56 27 -66 30 -251 l4
-194 -36 40 c-43 47 -151 106 -224 121 -35 7 -233 11 -583 11 -511 0 -530 1
-524 18 40 129 45 357 9 476 -6 18 10 18 522 14 l529 -4 72 -33z m-4009 -310
c28 -140 67 -243 132 -352 28 -45 50 -83 50 -83 0 -1 -75 2 -167 6 -193 7
-244 18 -242 51 1 16 3 17 6 5 5 -19 14 -23 97 -37 76 -14 289 -15 281 -1 -3
5 -13 7 -23 4 -13 -5 -14 -4 -4 4 11 8 9 17 -11 48 -13 22 -35 62 -48 89 -13
28 -28 51 -33 51 -17 2 -45 28 -39 38 3 6 0 5 -8 -2 -12 -11 -12 -14 0 -21 8
-5 11 -16 7 -26 -7 -19 -30 -15 -32 6 -2 32 -5 35 -28 35 -15 0 -22 -4 -18
-10 4 -6 5 -19 3 -30 -1 -11 2 -16 8 -11 6 3 9 10 6 15 -3 4 1 10 8 13 7 3 12
-4 12 -17 0 -17 -6 -22 -25 -21 -18 0 -24 5 -22 17 2 14 -2 13 -22 -5 -14 -12
-20 -24 -14 -28 5 -4 3 -9 -6 -12 -9 -4 -16 -2 -16 4 0 6 -4 8 -9 5 -5 -3 -12
1 -15 10 -3 8 -11 12 -17 8 -8 -4 -9 -3 -5 4 4 7 1 12 -8 12 -9 0 -16 -8 -17
-17 0 -10 -3 -13 -5 -6 -6 14 24 88 32 80 3 -3 0 -15 -6 -28 -10 -19 -10 -21
3 -16 9 3 17 -1 20 -13 6 -24 41 -20 46 5 3 17 2 18 -14 2 -22 -22 -28 -21
-20 3 4 14 2 20 -6 18 -7 -2 -13 7 -13 20 0 12 4 22 9 21 6 0 9 -6 7 -14 -1
-7 4 -15 13 -19 8 -3 15 -1 15 5 0 6 4 8 8 5 16 -9 11 38 -5 49 -15 11 -14 14
10 30 21 14 30 15 41 5 8 -6 12 -18 9 -26 -3 -8 0 -14 7 -14 8 0 11 9 8 25 -3
15 -1 22 5 18 6 -3 7 -1 3 5 -4 6 -13 9 -21 5 -8 -3 -15 -2 -15 1 0 4 11 11
25 16 26 10 58 3 50 -10 -3 -5 -1 -11 5 -15 16 -10 12 -45 -5 -45 -8 0 -15 -4
-15 -10 0 -5 -8 -7 -17 -4 -15 5 -15 4 -3 -4 9 -7 19 -7 26 -2 6 6 14 7 17 3
4 -3 7 0 8 8 0 8 9 -4 20 -26 11 -22 17 -31 14 -20 -4 11 -13 46 -22 78 -9 31
-21 57 -27 57 -6 0 -4 5 4 10 31 20 -14 10 -66 -14 -68 -32 -128 -87 -155
-143 -30 -62 -23 -176 19 -287 27 -73 32 -81 68 -95 35 -14 258 -17 2069 -21
l2030 -5 65 -24 c177 -65 305 -209 344 -383 8 -35 16 -120 19 -189 l5 -126
-582 -7 c-632 -8 -639 -8 -742 -67 -117 -66 -222 -213 -258 -360 -20 -81 -21
-235 -2 -307 34 -128 118 -261 209 -330 146 -112 153 -113 820 -110 l548 3 -3
-330 c-3 -316 -4 -333 -26 -394 -61 -169 -191 -277 -376 -312 -29 -5 -834 -9
-2001 -9 -1757 0 -1957 2 -2006 16 -178 52 -308 190 -338 359 -7 39 -12 566
-15 1521 -4 1227 -3 1470 9 1514 32 121 145 226 280 261 66 16 68 14 93 -110z
m-141 -151 c8 -12 9 -21 3 -25 -6 -3 -10 1 -10 9 0 9 -4 16 -10 16 -5 0 -10 5
-10 10 0 16 14 11 27 -10z m-90 -182 c-2 -13 -4 -3 -4 22 0 25 2 35 4 23 2
-13 2 -33 0 -45z m148 44 c-3 -3 -11 0 -18 7 -9 10 -8 11 6 5 10 -3 15 -9 12
-12z m153 -109 c-6 -7 -18 -12 -27 -12 -13 1 -12 2 2 6 10 3 16 11 13 18 -6
18 6 28 15 13 4 -7 3 -18 -3 -25z m4563 -1152 c18 -22 19 -44 19 -396 l0 -374
-27 -21 c-26 -21 -28 -21 -687 -18 l-661 3 -66 31 c-116 55 -192 142 -229 262
-51 165 8 351 145 454 95 72 92 72 560 78 231 4 534 6 673 6 l254 -1 19 -24z
m-6214 -1538 c-3 -10 -5 -2 -5 17 0 19 2 27 5 18 2 -10 2 -26 0 -35z m7128 17
c3 -5 1 -10 -4 -10 -6 0 -11 5 -11 10 0 6 2 10 4 10 3 0 8 -4 11 -10z m-121
-29 c3 -5 -2 -15 -12 -22 -15 -12 -16 -12 -5 2 7 9 10 19 6 22 -3 4 -4 7 0 7
3 0 8 -4 11 -9z m-6744 -33 c0 -5 -13 -7 -29 -6 -16 1 -27 6 -25 10 6 10 54 6
54 -4z m6870 2 c0 -5 -2 -10 -4 -10 -3 0 -8 5 -11 10 -3 6 -1 10 4 10 6 0 11
-4 11 -10z m-6824 -25 c23 -17 48 -20 38 -3 -4 7 -3 8 4 4 16 -10 15 -35 0
-32 -7 1 -23 7 -34 14 -12 6 -24 9 -27 6 -9 -9 -28 6 -22 17 8 13 18 11 41 -6z
m5819 -103 c-29 -98 -86 -201 -148 -266 l-59 -61 52 60 c65 76 133 211 151
301 8 38 15 59 17 46 2 -12 -4 -48 -13 -80z m580 88 c3 -5 2 -10 -4 -10 -5 0
-13 5 -16 10 -3 6 -2 10 4 10 5 0 13 -4 16 -10z m-6708 -32 c-3 -8 -6 -5 -6 6
-1 11 2 17 5 13 3 -3 4 -12 1 -19z m278 12 c3 -5 1 -10 -4 -10 -6 0 -11 5 -11
10 0 6 2 10 4 10 3 0 8 -4 11 -10z m6665 1 c0 -10 -24 -21 -48 -21 -10 0 -23
-9 -30 -20 -15 -25 -27 -26 -29 -1 -1 14 8 21 35 27 20 4 40 7 45 6 4 -1 7 3
7 8 0 6 5 10 10 10 6 0 10 -4 10 -9z m-6573 -28 c2 -6 -3 -10 -14 -8 -10 2
-22 4 -26 4 -5 1 -5 6 -2 12 9 13 37 8 42 -8z m6453 7 c0 -5 -5 -10 -11 -10
-5 0 -7 5 -4 10 3 6 8 10 11 10 2 0 4 -4 4 -10z m-6823 -42 c-3 -7 -5 -2 -5
12 0 14 2 19 5 13 2 -7 2 -19 0 -25z m0 -50 c-3 -7 -5 -2 -5 12 0 14 2 19 5
13 2 -7 2 -19 0 -25z m6890 -230 c-3 -7 -5 -2 -5 12 0 14 2 19 5 13 2 -7 2
-19 0 -25z m-6538 -123 c10 -11 21 -27 25 -35 12 -24 -32 31 -65 79 -16 25
-29 50 -29 55 0 6 12 -9 26 -34 14 -25 33 -54 43 -65z m6531 97 c0 -5 -7 -17
-15 -28 -14 -18 -14 -17 -4 9 12 27 19 34 19 19z m-5870 -62 c-8 -5 -19 -10
-25 -10 -5 0 -3 5 5 10 8 5 20 10 25 10 6 0 3 -5 -5 -10z m-40 -13 c0 -2 -12
-14 -27 -28 l-28 -24 24 28 c23 25 31 32 31 24z m5820 -52 c-24 -25 -46 -45
-49 -45 -3 0 15 20 39 45 24 25 46 45 49 45 3 0 -15 -20 -39 -45z m-611 -39
c-22 -20 -22 -20 -6 0 9 11 17 27 18 35 0 11 2 11 6 0 3 -7 -5 -23 -18 -35z
m-5649 -84 c19 -20 -68 39 -102 70 -33 30 -27 27 27 -13 39 -28 72 -54 75 -57z
m6192 66 c-6 -7 -25 -22 -44 -32 -39 -23 -32 -13 14 20 38 26 45 29 30 12z
m-5605 -44 c-3 -3 -12 -4 -19 -1 -8 3 -5 6 6 6 11 1 17 -2 13 -5z m4930 0 c-3
-3 -12 -4 -19 -1 -8 3 -5 6 6 6 11 1 17 -2 13 -5z m-4890 -10 c-3 -3 -12 -4
-19 -1 -8 3 -5 6 6 6 11 1 17 -2 13 -5z m4850 0 c-3 -3 -12 -4 -19 -1 -8 3 -5
6 6 6 11 1 17 -2 13 -5z m-4800 -10 c-3 -3 -12 -4 -19 -1 -8 3 -5 6 6 6 11 1
17 -2 13 -5z m4760 0 c-3 -3 -12 -4 -19 -1 -8 3 -5 6 6 6 11 1 17 -2 13 -5z
m653 1 c0 -6 -56 -35 -67 -35 -4 1 8 9 27 20 39 22 40 22 40 15z m-6044 -21
c18 -14 18 -14 -6 -3 -31 14 -36 19 -24 19 6 0 19 -7 30 -16z m687 9 c-7 -2
-19 -2 -25 0 -7 3 -2 5 12 5 14 0 19 -2 13 -5z m4654 1 c-3 -3 -12 -4 -19 -1
-8 3 -5 6 6 6 11 1 17 -2 13 -5z m-4584 -11 c-7 -2 -21 -2 -30 0 -10 3 -4 5
12 5 17 0 24 -2 18 -5z m4530 0 c-7 -2 -21 -2 -30 0 -10 3 -4 5 12 5 17 0 24
-2 18 -5z m-4450 -10 c-7 -2 -21 -2 -30 0 -10 3 -4 5 12 5 17 0 24 -2 18 -5z
m4385 0 c-10 -2 -26 -2 -35 0 -10 3 -2 5 17 5 19 0 27 -2 18 -5z m-4295 -10
c-13 -2 -33 -2 -45 0 -13 2 -3 4 22 4 25 0 35 -2 23 -4z m4215 0 c-10 -2 -26
-2 -35 0 -10 3 -2 5 17 5 19 0 27 -2 18 -5z m-5068 -13 c8 -5 11 -10 5 -10 -5
0 -17 5 -25 10 -8 5 -10 10 -5 10 6 0 17 -5 25 -10z m983 3 c-13 -2 -35 -2
-50 0 -16 2 -5 4 22 4 28 0 40 -2 28 -4z m3980 0 c-13 -2 -33 -2 -45 0 -13 2
-3 4 22 4 25 0 35 -2 23 -4z m-3795 -10 c-21 -2 -57 -2 -80 0 -24 2 -7 4 37 4
44 0 63 -2 43 -4z m3660 0 c-21 -2 -55 -2 -75 0 -21 2 -4 4 37 4 41 0 58 -2
38 -4z m-4783 -21 c-3 -3 -11 0 -18 7 -9 10 -8 11 6 5 10 -3 15 -9 12 -12z
m2767 11 c-270 -2 -714 -2 -985 0 -270 1 -49 2 493 2 542 0 763 -1 492 -2z
m700 0 c-40 -2 -103 -2 -140 0 -37 2 -4 3 73 3 77 0 107 -2 67 -3z m185 0
c-20 -2 -52 -2 -70 0 -17 2 0 4 38 4 39 0 53 -2 32 -4z m716 0 c-116 -2 -310
-2 -430 0 -120 1 -24 2 212 2 237 0 335 -1 218 -2z m-4323 -23 c8 -5 11 -10 5
-10 -5 0 -17 5 -25 10 -8 5 -10 10 -5 10 6 0 17 -5 25 -10z m115 -40 c13 -6
15 -9 5 -9 -8 0 -22 4 -30 9 -18 12 -2 12 25 0z m70 -20 c13 -5 14 -9 5 -9 -8
0 -24 4 -35 9 -13 5 -14 9 -5 9 8 0 24 -4 35 -9z m5312 4 c-3 -3 -12 -4 -19
-1 -8 3 -5 6 6 6 11 1 17 -2 13 -5z m-40 -10 c-3 -3 -12 -4 -19 -1 -8 3 -5 6
6 6 11 1 17 -2 13 -5z m-5197 -14 c20 -6 21 -8 5 -8 -11 0 -29 3 -40 8 -25 11
1 11 35 0z m5157 4 c-3 -3 -12 -4 -19 -1 -8 3 -5 6 6 6 11 1 17 -2 13 -5z
m-39 -9 c-6 -7 -196 -45 -217 -44 -9 0 29 11 84 24 101 23 142 29 133 20z
m-5003 -20 c28 -7 41 -13 30 -13 -11 0 -42 6 -70 13 -27 7 -41 13 -30 13 11 0
43 -6 70 -13z m150 -29 c33 -8 51 -14 40 -15 -11 0 -47 6 -80 13 -33 8 -51 14
-40 15 11 0 47 -6 80 -13z m4614 0 c-4 -4 -52 -12 -265 -46 -33 -6 -75 -10
-92 -10 -36 0 -39 -6 -15 -32 15 -17 15 -18 1 -13 -9 4 -19 13 -22 21 -3 8
-19 14 -38 14 -23 0 -29 -3 -19 -9 22 -14 2 -33 -28 -26 -24 6 -25 5 -7 -8 15
-11 16 -14 3 -14 -26 0 -29 27 -4 38 21 9 20 9 -3 3 -14 -4 -37 -7 -51 -8 -24
-1 -25 -3 -16 -24 12 -26 6 -35 -17 -26 -14 5 -15 9 -5 15 20 12 3 22 -17 11
-12 -7 -26 -7 -39 -1 -19 10 -19 9 -1 -5 10 -8 15 -20 11 -26 -6 -9 -9 -9 -15
0 -5 8 -9 7 -13 -4 -4 -9 -1 -16 6 -16 7 0 4 -7 -7 -15 -18 -13 -18 -14 3 -12
11 1 21 8 21 17 0 13 2 13 10 0 11 -17 -2 -28 -33 -26 -15 1 -21 7 -19 20 2
13 -2 17 -15 14 -10 -2 -17 -11 -15 -19 1 -8 -7 -3 -18 10 -16 19 -18 26 -8
32 10 7 8 9 -4 9 -10 0 -18 -2 -18 -4 0 -2 -3 -13 -6 -23 -4 -12 -3 -14 3 -6
7 9 13 5 25 -15 16 -27 16 -27 -13 -27 -16 -1 -29 3 -29 7 0 4 5 8 12 8 6 0 9
3 5 6 -9 9 -67 -38 -60 -49 3 -6 1 -7 -6 -3 -6 4 -8 12 -5 18 4 6 2 8 -4 4 -6
-3 -13 -2 -17 4 -7 12 -45 14 -45 3 0 -5 4 -14 9 -21 6 -11 10 -10 15 4 6 16
8 16 16 4 13 -20 12 -33 0 -25 -5 3 -10 2 -10 -3 0 -10 1 -10 -94 -16 -64 -5
-68 -4 -50 10 14 12 12 12 -10 -1 -16 -9 -25 -12 -22 -6 4 6 3 11 -1 11 -5 0
-13 -10 -18 -22 -6 -13 -16 -22 -23 -21 -7 2 -12 -1 -12 -5 0 -5 -7 -9 -15 -9
-10 0 -14 7 -10 21 3 12 2 15 -1 8 -5 -10 -9 -10 -22 0 -15 12 -16 11 -3 -5
11 -14 11 -21 3 -29 -9 -9 -12 -8 -12 5 0 9 -4 17 -10 17 -15 0 -12 -17 7 -36
17 -17 16 -17 -17 -11 -19 4 -41 15 -47 24 -12 16 -13 16 -13 -1 0 -9 -4 -14
-10 -11 -5 3 -10 1 -10 -5 0 -6 -5 -8 -12 -4 -7 5 -8 3 -4 -5 5 -7 14 -10 20
-8 7 3 13 0 13 -6 0 -7 -18 -13 -41 -13 -23 -1 -33 0 -23 3 13 3 17 11 14 23
-3 11 0 21 7 24 6 3 0 3 -13 0 -17 -5 -21 -3 -16 6 5 9 4 11 -3 6 -7 -4 -12
-14 -12 -22 0 -9 5 -12 12 -8 7 4 8 3 4 -4 -7 -11 -37 -5 -33 6 1 4 -2 8 -7 9
-5 1 -13 7 -17 15 -7 10 -9 9 -9 -4 0 -9 9 -23 20 -31 20 -14 20 -15 -11 -27
-26 -11 -32 -11 -40 1 -7 12 -10 12 -21 0 -11 -11 -11 -13 1 -6 10 6 12 4 7
-4 -6 -9 -11 -9 -23 1 -19 15 -45 20 -37 6 5 -7 -3 -9 -22 -4 -45 12 -49 12
-47 -1 3 -14 -20 -11 -41 6 -14 12 -16 12 -11 -1 8 -19 -43 -18 -55 2 -9 13
-14 7 -11 -12 0 -5 -6 -8 -15 -8 -9 0 -12 5 -8 12 5 7 3 8 -7 2 -8 -5 -36 -10
-63 -12 -27 -1 -56 -8 -65 -15 -10 -8 -12 -8 -8 -1 4 7 -1 18 -10 25 -12 10
-14 10 -9 2 9 -15 -12 -16 -66 -4 -22 5 -36 5 -32 0 3 -5 0 -9 -5 -9 -6 0 -11
5 -11 10 0 6 -5 10 -11 10 -5 0 -8 -4 -5 -8 3 -5 -56 -9 -130 -10 -89 -1 -134
2 -134 9 0 5 -6 7 -12 3 -7 -5 -31 -9 -53 -11 -22 -2 -53 -5 -69 -8 -20 -3
-27 -1 -23 8 2 6 -6 20 -18 29 -22 17 -23 17 -20 0 1 -9 8 -16 14 -14 14 3 15
-15 1 -23 -5 -3 -10 -3 -10 2 0 4 -14 9 -32 10 -17 1 -34 6 -37 10 -12 16 -34
14 -27 -2 3 -9 2 -13 -4 -10 -6 3 -10 1 -10 -5 0 -6 -5 -8 -10 -5 -8 5 -7 12
2 23 12 15 11 16 -4 4 -19 -15 -78 -23 -78 -11 0 4 -16 6 -35 4 -19 -2 -38 1
-41 7 -5 7 -2 8 6 3 9 -5 11 -4 6 4 -4 6 -12 9 -17 5 -5 -3 -7 -10 -4 -15 4
-5 -7 -9 -24 -9 -16 0 -37 -3 -47 -7 -12 -4 -15 -2 -12 8 3 8 14 13 24 12 10
-1 13 0 7 3 -7 3 -13 12 -13 20 0 8 -7 14 -16 14 -11 0 -14 -6 -9 -20 6 -18 3
-20 -22 -17 -15 2 -40 0 -55 -4 -21 -6 -28 -4 -28 7 0 8 -5 14 -11 14 -5 0 -8
-4 -5 -8 2 -4 1 -14 -5 -22 -6 -11 -9 -12 -9 -2 0 8 -5 10 -12 6 -10 -6 -10
-5 -1 7 21 26 0 40 -55 38 -29 -1 -52 -6 -52 -11 0 -5 -4 -6 -10 -3 -5 3 -10
1 -10 -4 0 -6 5 -11 11 -11 5 0 7 -4 4 -10 -3 -5 -14 -10 -23 -10 -12 0 -13 3
-5 8 19 12 -12 52 -37 47 -11 -2 -20 1 -20 6 0 6 -7 3 -16 -5 -8 -9 -20 -13
-26 -10 -7 4 -8 2 -4 -5 4 -6 12 -8 18 -5 7 5 8 2 3 -7 -6 -11 -5 -12 6 -2 16
16 39 17 39 2 0 -5 -4 -7 -10 -4 -6 3 -10 2 -10 -2 0 -5 -9 -9 -20 -10 -11 -1
-20 3 -20 8 0 6 -4 8 -8 5 -5 -3 -8 9 -8 27 1 25 -3 32 -19 32 -25 0 -47 -14
-39 -26 3 -5 -2 -9 -10 -9 -20 0 -17 40 4 58 12 10 10 10 -11 3 -15 -5 -39 -8
-53 -7 -19 2 -26 -1 -22 -10 3 -7 -3 -18 -12 -26 -13 -11 -14 -11 -7 2 5 8 10
22 10 30 0 9 7 14 18 12 9 -2 17 2 17 7 0 15 -18 23 -25 11 -3 -5 -13 -10 -21
-10 -8 0 -12 5 -9 10 3 6 2 10 -3 10 -5 0 -14 -11 -22 -24 -9 -19 -19 -23 -39
-20 -14 3 -30 10 -36 17 -5 7 -19 19 -30 27 -19 14 -19 14 -3 -5 12 -14 14
-25 8 -35 -8 -13 -10 -12 -10 3 0 11 -8 17 -22 17 -19 0 -20 2 -8 11 12 8 11
9 -5 5 -11 -3 -26 -2 -34 3 -11 7 -10 10 4 18 10 6 13 13 7 17 -5 3 -13 -1
-16 -10 -3 -8 -10 -13 -15 -9 -5 3 -12 1 -16 -5 -4 -6 -11 -8 -16 -4 -5 3 -9
2 -8 -3 1 -4 -3 -19 -9 -33 -7 -18 -11 -20 -11 -8 -1 10 -14 24 -29 32 -30 15
-41 56 -16 56 11 0 13 -6 9 -19 -4 -14 0 -23 13 -30 17 -9 21 -7 26 15 4 13 2
32 -4 42 -9 14 -10 13 -8 -10 2 -15 -1 -26 -7 -25 -5 1 -9 7 -7 14 2 7 -9 18
-23 23 -14 6 -23 14 -20 20 3 5 0 10 -9 10 -8 0 -17 6 -19 13 -4 7 -6 8 -6 1
-1 -6 6 -17 14 -24 19 -16 19 -27 0 -27 -8 0 -12 4 -9 8 2 4 -5 10 -16 14 -23
7 -26 21 -7 28 6 2 0 4 -15 3 -29 -1 -34 -11 -18 -36 6 -9 10 -11 10 -3 0 7 7
10 15 7 8 -4 15 -10 15 -15 0 -13 -52 -2 -62 13 -5 9 -8 10 -8 1 0 -6 5 -15
10 -18 13 -8 13 -25 -1 -25 -5 0 -7 5 -4 10 3 6 1 10 -4 10 -6 0 -11 9 -11 20
0 11 6 20 13 20 6 0 -1 7 -17 15 -16 9 -31 13 -34 11 -8 -9 7 -38 17 -32 5 3
11 -6 14 -19 2 -14 0 -28 -4 -31 -5 -3 -9 0 -9 7 0 7 -8 6 -25 -5 -14 -9 -25
-12 -25 -6 0 7 -6 8 -18 1 -14 -8 -18 -5 -19 11 -2 22 -22 40 -35 32 -4 -3 -8
0 -8 6 0 7 7 9 16 6 8 -3 12 -2 9 3 -3 5 -1 12 4 15 10 7 25 -22 22 -41 -1 -7
2 -13 8 -13 5 0 15 -2 23 -5 7 -3 22 1 33 10 19 15 19 15 -8 11 -15 -3 -25 -1
-22 5 4 5 1 9 -5 9 -6 0 -8 5 -5 10 4 6 11 7 17 4 7 -4 8 -2 4 5 -4 6 -12 8
-18 5 -7 -5 -9 -2 -6 8 5 11 0 14 -18 10 -13 -2 -27 -8 -30 -13 -3 -5 -12 -9
-20 -9 -9 0 -12 5 -8 11 5 9 -1 10 -20 5 -24 -6 -26 -5 -14 13 7 12 15 16 19
10 3 -6 10 -5 17 3 9 12 -25 18 -191 37 -203 23 -414 55 -297 46 30 -3 105
-12 165 -20 480 -63 1039 -91 1920 -93 714 -3 1255 14 1720 54 180 15 521 56
605 73 50 10 96 13 89 7z m-334 -75 c3 -5 0 -13 -6 -17 -7 -4 -9 -3 -5 4 3 6
-2 13 -11 15 -16 4 -16 5 -1 6 9 0 19 -3 23 -8z m85 -5 c0 -3 -4 -8 -10 -11
-5 -3 -10 -1 -10 4 0 6 5 11 10 11 6 0 10 -2 10 -4z m-3857 -27 c5 -3 2 -9 -5
-12 -9 -3 -14 3 -15 15 -1 11 1 16 5 12 4 -5 11 -12 15 -15z m3820 14 c-7 -2
-19 -2 -25 0 -7 3 -2 5 12 5 14 0 19 -2 13 -5z m-3768 -13 c3 -5 -1 -10 -10
-10 -9 0 -13 5 -10 10 3 6 8 10 10 10 2 0 7 -4 10 -10z m-155 -10 c0 -5 -2
-10 -4 -10 -3 0 -8 5 -11 10 -3 6 -1 10 4 10 6 0 11 -4 11 -10z m3699 -12 c11
-17 10 -18 -8 -9 -25 14 -34 28 -17 28 7 0 19 -9 25 -19z m-3619 -19 c0 -6 -4
-7 -10 -4 -5 3 -10 11 -10 16 0 6 5 7 10 4 6 -3 10 -11 10 -16z m101 -26 c11
-15 11 -16 -1 -6 -11 10 -17 10 -29 0 -14 -11 -14 -10 -2 6 7 9 15 17 16 17 1
0 9 -8 16 -17z m3479 -3 c-20 -13 -33 -13 -25 0 3 6 14 10 23 10 15 0 15 -2 2
-10z m-3492 -29 c-2 -5 5 -16 15 -23 16 -12 15 -13 -9 -15 -17 0 -22 2 -14 7
9 5 9 9 1 14 -6 4 -9 12 -6 17 8 12 16 12 13 0z m303 -14 c-1 -12 -15 -9 -19
4 -3 6 1 10 8 8 6 -3 11 -8 11 -12z m-37 -12 c3 -8 1 -15 -4 -15 -6 0 -10 7
-10 15 0 8 2 15 4 15 2 0 6 -7 10 -15z m-77 -17 c-3 -8 -6 -5 -6 6 -1 11 2 17
5 13 3 -3 4 -12 1 -19z m46 -18 c-3 -3 -8 1 -10 8 -3 6 -9 10 -14 7 -5 -4 -6
1 -3 10 6 14 8 14 19 -2 8 -10 11 -20 8 -23z m3039 16 c4 3 8 1 11 -3 3 -5 -4
-9 -17 -9 -15 0 -22 6 -23 21 -2 18 -1 19 11 3 7 -10 15 -15 18 -12z m-2794
-27 c9 -1 20 -1 24 0 9 1 4 -27 -7 -36 -4 -4 -5 -3 -2 3 9 15 -64 49 -73 34
-5 -9 -9 -9 -14 -1 -4 6 -2 11 3 11 6 0 10 3 10 8 -3 20 3 20 21 2 11 -11 28
-21 38 -21z m-311 25 c-3 -3 -12 -4 -19 -1 -8 3 -5 6 6 6 11 1 17 -2 13 -5z
m153 -30 c0 -8 -5 -12 -10 -9 -6 4 -8 11 -5 16 9 14 15 11 15 -7z m2880 6 c0
-5 -5 -10 -11 -10 -5 0 -7 5 -4 10 3 6 8 10 11 10 2 0 4 -4 4 -10z m-2553 -15
c0 -8 -4 -12 -9 -9 -4 3 -8 9 -8 15 0 5 4 9 8 9 5 0 9 -7 9 -15z m2453 0 c0
-1 -8 -5 -18 -7 -11 -3 -19 0 -19 7 0 7 8 10 19 7 10 -2 18 -6 18 -7z m-50 -3
c0 -4 -12 -9 -27 -10 -22 -1 -24 0 -13 8 18 12 40 13 40 2z m-2310 -24 c0 -6
-6 -5 -15 2 -8 7 -15 14 -15 16 0 2 7 1 15 -2 8 -4 15 -11 15 -16z m2246 7
c-4 -11 0 -15 11 -13 24 4 26 -15 2 -30 -17 -11 -20 -11 -17 4 2 9 -3 19 -11
22 -9 3 -11 0 -6 -8 6 -9 4 -11 -4 -6 -9 6 -8 13 5 27 21 23 28 24 20 4z
m-2379 -17 c-3 -8 -6 -5 -6 6 -1 11 2 17 5 13 3 -3 4 -12 1 -19z m2333 -13 c0
-8 -5 -17 -12 -21 -7 -4 -8 -3 -4 4 4 7 2 12 -3 12 -6 0 -11 7 -11 15 0 9 6
12 15 9 8 -4 15 -12 15 -19z m167 10 c0 -17 -13 -20 -21 -6 -4 5 0 12 6 14 7
3 13 6 14 6 0 1 1 -6 1 -14z m-2302 -15 c3 -5 1 -10 -4 -10 -6 0 -11 5 -11 10
0 6 2 10 4 10 3 0 8 -4 11 -10z m-45 -12 c0 -6 -3 -8 -7 -5 -3 4 -12 2 -18 -3
-9 -7 -16 -6 -23 3 -9 10 -4 13 19 15 17 1 29 -3 29 -10z m280 -1 c0 5 10 9
23 10 l22 2 -23 -13 c-12 -6 -20 -14 -18 -17 3 -3 -8 -6 -24 -7 -20 -2 -30 2
-30 12 0 18 21 26 38 13 6 -5 12 -5 12 0z m-100 -1 c0 -3 -4 -8 -10 -11 -5 -3
-10 -1 -10 4 0 6 5 11 10 11 6 0 10 -2 10 -4z m1124 -63 c4 -11 1 -11 -14 -3
-24 13 -25 17 -5 17 8 0 16 -6 19 -14z"/>
<path d="M3849 7373 c-13 -16 -12 -17 4 -4 9 7 17 15 17 17 0 8 -8 3 -21 -13z"/>
<path d="M5295 7350 c10 -11 20 -20 23 -20 3 0 -3 9 -13 20 -10 11 -20 20 -23
20 -3 0 3 -9 13 -20z"/>
<path d="M3764 7298 l-29 -33 33 29 c17 17 32 31 32 33 0 8 -8 1 -36 -29z"/>
<path d="M5405 7240 c10 -11 20 -20 23 -20 3 0 -3 9 -13 20 -10 11 -20 20 -23
20 -3 0 3 -9 13 -20z"/>
<path d="M4921 7176 c2 -2 15 -9 29 -15 24 -11 24 -11 6 3 -16 13 -49 24 -35
12z"/>
<path d="M4209 7093 l-24 -28 28 24 c25 23 32 31 24 31 -2 0 -14 -12 -28 -27z"/>
<path d="M4970 7000 c-6 -11 -8 -20 -6 -20 3 0 10 9 16 20 6 11 8 20 6 20 -3
0 -10 -9 -16 -20z"/>
<path d="M4410 6816 c0 -2 8 -10 18 -17 15 -13 16 -12 3 4 -13 16 -21 21 -21
13z"/>
<path d="M3481 6744 c0 -11 3 -14 6 -6 3 7 2 16 -1 19 -3 4 -6 -2 -5 -13z"/>
<path d="M4588 6743 c7 -3 16 -2 19 1 4 3 -2 6 -13 5 -11 0 -14 -3 -6 -6z"/>
<path d="M4638 6733 c6 -2 18 -2 25 0 6 3 1 5 -13 5 -14 0 -19 -2 -12 -5z"/>
<path d="M4190 6655 c19 -19 36 -35 39 -35 3 0 -10 16 -29 35 -19 19 -36 35
-39 35 -3 0 10 -16 29 -35z"/>
<path d="M5653 6610 c0 -41 2 -58 4 -37 2 20 2 54 0 75 -2 20 -4 3 -4 -38z"/>
<path d="M4910 6656 c0 -3 9 -10 20 -16 11 -6 20 -8 20 -6 0 3 -9 10 -20 16
-11 6 -20 8 -20 6z"/>
<path d="M3472 6610 c0 -19 2 -27 5 -17 2 9 2 25 0 35 -3 9 -5 1 -5 -18z"/>
<path d="M4996 6590 c17 -19 36 -44 42 -55 6 -11 12 -14 12 -7 0 7 -19 32 -42
56 -29 28 -33 30 -12 6z"/>
<path d="M4368 6553 c7 -3 16 -2 19 1 4 3 -2 6 -13 5 -11 0 -14 -3 -6 -6z"/>
<path d="M4488 6523 c7 -3 16 -2 19 1 4 3 -2 6 -13 5 -11 0 -14 -3 -6 -6z"/>
<path d="M4538 6513 c7 -3 16 -2 19 1 4 3 -2 6 -13 5 -11 0 -14 -3 -6 -6z"/>
<path d="M3481 6494 c0 -11 3 -14 6 -6 3 7 2 16 -1 19 -3 4 -6 -2 -5 -13z"/>
<path d="M4598 6503 c7 -3 16 -2 19 1 4 3 -2 6 -13 5 -11 0 -14 -3 -6 -6z"/>
<path d="M4638 6493 c7 -3 16 -2 19 1 4 3 -2 6 -13 5 -11 0 -14 -3 -6 -6z"/>
<path d="M5062 6455 c0 -16 2 -22 5 -12 2 9 2 23 0 30 -3 6 -5 -1 -5 -18z"/>
<path d="M5641 6464 c0 -11 3 -14 6 -6 3 7 2 16 -1 19 -3 4 -6 -2 -5 -13z"/>
<path d="M4740 6457 c8 -7 21 -19 29 -27 11 -13 12 -12 3 6 -7 12 -19 24 -29
28 -16 5 -16 4 -3 -7z"/>
<path d="M3491 6444 c0 -11 3 -14 6 -6 3 7 2 16 -1 19 -3 4 -6 -2 -5 -13z"/>
<path d="M5063 6380 c0 -25 2 -35 4 -22 2 12 2 32 0 45 -2 12 -4 2 -4 -23z"/>
<path d="M3506 6383 c13 -53 80 -198 114 -248 43 -63 99 -125 113 -125 6 0 -7
17 -28 38 -61 59 -131 175 -166 272 -31 89 -46 116 -33 63z"/>
<path d="M4220 6405 c0 -6 90 -58 95 -54 2 2 -19 16 -46 32 -27 15 -49 25 -49
22z"/>
<path d="M4144 6329 c-23 -47 -34 -79 -30 -94 13 -52 132 -119 268 -152 74
-17 76 -19 73 -45 -2 -16 1 -28 6 -28 5 0 9 15 9 33 l0 34 -77 16 c-43 9 -107
31 -143 48 -61 29 -130 82 -130 102 0 4 15 42 34 83 19 41 33 74 30 74 -2 0
-20 -32 -40 -71z"/>
<path d="M5596 6313 c-36 -97 -97 -203 -149 -260 -22 -24 -35 -43 -29 -43 15
0 73 73 116 145 38 62 99 210 94 226 -2 5 -16 -25 -32 -68z"/>
<path d="M3578 6373 c6 -2 18 -2 25 0 6 3 1 5 -13 5 -14 0 -19 -2 -12 -5z"/>
<path d="M5573 6373 c9 -2 23 -2 30 0 6 3 -1 5 -18 5 -16 0 -22 -2 -12 -5z"/>
<path d="M3638 6363 c6 -2 18 -2 25 0 6 3 1 5 -13 5 -14 0 -19 -2 -12 -5z"/>
<path d="M5503 6363 c9 -2 23 -2 30 0 6 3 -1 5 -18 5 -16 0 -22 -2 -12 -5z"/>
<path d="M3688 6353 c6 -2 18 -2 25 0 6 3 1 5 -13 5 -14 0 -19 -2 -12 -5z"/>
<path d="M4770 6352 c0 -7 -15 -21 -32 -32 -18 -11 -28 -20 -21 -20 18 0 69
47 61 56 -5 4 -8 2 -8 -4z"/>
<path d="M5433 6353 c9 -2 23 -2 30 0 6 3 -1 5 -18 5 -16 0 -22 -2 -12 -5z"/>
<path d="M3748 6343 c7 -3 16 -2 19 1 4 3 -2 6 -13 5 -11 0 -14 -3 -6 -6z"/>
<path d="M5353 6343 c9 -2 25 -2 35 0 9 3 1 5 -18 5 -19 0 -27 -2 -17 -5z"/>
<path d="M3808 6333 c6 -2 18 -2 25 0 6 3 1 5 -13 5 -14 0 -19 -2 -12 -5z"/>
<path d="M5273 6333 c9 -2 23 -2 30 0 6 3 -1 5 -18 5 -16 0 -22 -2 -12 -5z"/>
<path d="M3858 6323 c6 -2 18 -2 25 0 6 3 1 5 -13 5 -14 0 -19 -2 -12 -5z"/>
<path d="M4410 6315 c19 -7 44 -14 55 -14 11 0 0 7 -25 15 -57 17 -77 17 -30
-1z"/>
<path d="M5173 6323 c9 -2 25 -2 35 0 9 3 1 5 -18 5 -19 0 -27 -2 -17 -5z"/>
<path d="M3923 6313 c9 -2 25 -2 35 0 9 3 1 5 -18 5 -19 0 -27 -2 -17 -5z"/>
<path d="M5083 6313 c9 -2 23 -2 30 0 6 3 -1 5 -18 5 -16 0 -22 -2 -12 -5z"/>
<path d="M3993 6303 c9 -2 25 -2 35 0 9 3 1 5 -18 5 -19 0 -27 -2 -17 -5z"/>
<path d="M4063 6293 c9 -2 25 -2 35 0 9 3 1 5 -18 5 -19 0 -27 -2 -17 -5z"/>
<path d="M4518 6293 c18 -2 45 -2 60 0 15 2 0 4 -33 4 -33 0 -45 -2 -27 -4z"/>
<path d="M4633 6293 c15 -2 37 -2 50 0 12 2 0 4 -28 4 -27 0 -38 -2 -22 -4z"/>
<path d="M4858 6013 c7 -3 16 -2 19 1 4 3 -2 6 -13 5 -11 0 -14 -3 -6 -6z"/>
<path d="M6550 6600 c453 -5 520 -7 558 -22 92 -37 169 -113 209 -205 9 -21
20 -83 24 -138 l7 -100 -2 105 c-2 98 -4 109 -35 168 -41 75 -103 135 -179
170 l-57 27 -520 0 -520 1 515 -6z"/>
<path d="M6043 6470 c0 -25 2 -35 4 -22 2 12 2 32 0 45 -2 12 -4 2 -4 -23z"/>
<path d="M6031 6394 c0 -11 3 -14 6 -6 3 7 2 16 -1 19 -3 4 -6 -2 -5 -13z"/>
<path d="M7300 6185 c0 -2 6 -8 13 -14 10 -8 14 -7 14 2 0 8 -6 14 -14 14 -7
0 -13 -1 -13 -2z"/>
<path d="M3072 6324 c-1 -23 2 -33 9 -29 6 4 8 13 5 21 -3 8 0 11 10 7 14 -5
14 -3 3 16 -19 29 -24 27 -27 -15z"/>
<path d="M3095 6210 c-3 -5 -1 -10 4 -10 6 0 11 5 11 10 0 6 -2 10 -4 10 -3 0
-8 -4 -11 -10z"/>
<path d="M6445 4735 c-27 -8 -53 -14 -56 -15 -18 -1 -103 -88 -121 -124 -32
-63 -36 -159 -8 -224 48 -112 162 -179 289 -170 99 7 180 58 224 142 32 61 31
174 -3 239 -62 122 -202 188 -325 152z m146 -158 c64 -43 72 -132 18 -186 -72
-72 -193 -32 -206 68 -15 110 96 180 188 118z"/>
<path d="M6444 4556 c-39 -39 -45 -86 -18 -137 29 -57 119 -73 168 -30 59 51
51 153 -16 187 -49 25 -96 18 -134 -20z"/>
<path d="M6746 2303 c-3 -4 -28 -6 -53 -4 -26 1 -45 0 -42 -4 4 -3 29 -7 58
-9 37 -2 51 1 51 11 0 15 -3 16 -14 6z"/>
<path d="M6796 2301 c-3 -4 6 -6 19 -3 14 2 25 6 25 8 0 8 -39 4 -44 -5z"/>
<path d="M3438 2293 c7 -3 16 -2 19 1 4 3 -2 6 -13 5 -11 0 -14 -3 -6 -6z"/>
<path d="M3471 2295 c9 -9 90 -15 85 -7 -3 5 -24 10 -47 10 -23 1 -40 -1 -38
-3z"/>
<path d="M3570 2277 c0 -10 8 -15 20 -14 11 1 20 5 20 9 0 5 24 6 53 2 28 -3
68 -6 87 -5 19 0 29 -2 23 -5 -21 -9 -15 -20 11 -19 29 0 47 15 20 16 -18 0
-18 1 1 9 15 6 5 9 -35 10 -30 0 -88 3 -127 6 -61 5 -73 4 -73 -9z"/>
<path d="M6590 2286 c0 -2 7 -9 15 -16 13 -11 14 -10 9 4 -5 14 -24 23 -24 12z"/>
<path d="M6363 2273 c15 -2 37 -2 50 0 12 2 0 4 -28 4 -27 0 -38 -2 -22 -4z"/>
<path d="M3903 2263 c9 -2 23 -2 30 0 6 3 -1 5 -18 5 -16 0 -22 -2 -12 -5z"/>
<path d="M3955 2260 c3 -5 1 -10 -6 -10 -7 0 -10 -3 -6 -6 3 -3 12 -2 19 2 7
5 24 10 38 12 41 6 36 12 -9 12 -26 0 -40 -4 -36 -10z"/>
<path d="M3725 2250 c-3 -5 -2 -10 4 -10 5 0 13 5 16 10 3 6 2 10 -4 10 -5 0
-13 -4 -16 -10z"/>
<path d="M3837 2249 c7 -7 15 -10 18 -7 3 3 -2 9 -12 12 -14 6 -15 5 -6 -5z"/>
<path d="M4173 2253 c20 -2 54 -2 75 0 20 2 3 4 -38 4 -41 0 -58 -2 -37 -4z"/>
<path d="M5900 2251 c0 -4 11 -6 25 -3 14 2 25 6 25 8 0 2 -11 4 -25 4 -14 0
-25 -4 -25 -9z"/>
<path d="M5973 2253 c9 -2 23 -2 30 0 6 3 -1 5 -18 5 -16 0 -22 -2 -12 -5z"/>
<path d="M6740 2250 c-9 -6 -10 -10 -3 -10 6 0 15 5 18 10 8 12 4 12 -15 0z"/>
<path d="M4498 2243 c6 -2 18 -2 25 0 6 3 1 5 -13 5 -14 0 -19 -2 -12 -5z"/>
<path d="M4558 2243 c12 -2 30 -2 40 0 9 3 -1 5 -23 4 -22 0 -30 -2 -17 -4z"/>
<path d="M4638 2243 c12 -2 30 -2 40 0 9 3 -1 5 -23 4 -22 0 -30 -2 -17 -4z"/>
<path d="M5418 2243 c7 -3 16 -2 19 1 4 3 -2 6 -13 5 -11 0 -14 -3 -6 -6z"/>
<path d="M5468 2243 c6 -2 18 -2 25 0 6 3 1 5 -13 5 -14 0 -19 -2 -12 -5z"/>
<path d="M5518 2243 c7 -3 16 -2 19 1 4 3 -2 6 -13 5 -11 0 -14 -3 -6 -6z"/>
<path d="M5558 2243 c6 -2 18 -2 25 0 6 3 1 5 -13 5 -14 0 -19 -2 -12 -5z"/>
<path d="M5613 2243 c9 -2 23 -2 30 0 6 3 -1 5 -18 5 -16 0 -22 -2 -12 -5z"/>
<path d="M5678 2243 c7 -3 16 -2 19 1 4 3 -2 6 -13 5 -11 0 -14 -3 -6 -6z"/>
<path d="M5723 2243 c9 -2 23 -2 30 0 6 3 -1 5 -18 5 -16 0 -22 -2 -12 -5z"/>
<path d="M6610 2246 c0 -2 7 -6 15 -10 8 -3 15 -1 15 4 0 6 -7 10 -15 10 -8 0
-15 -2 -15 -4z"/>
<path d="M6572 2215 c-11 -12 -10 -15 3 -15 8 0 15 7 15 15 0 18 -2 18 -18 0z"/>
<path d="M6620 2205 c-7 -9 -8 -15 -2 -15 5 0 12 7 16 15 3 8 4 15 2 15 -2 0
-9 -7 -16 -15z"/>
<path d="M3800 2194 c0 -8 5 -12 10 -9 6 4 8 11 5 16 -9 14 -15 11 -15 -7z"/>
<path d="M6475 2190 c3 -5 8 -10 11 -10 2 0 4 5 4 10 0 6 -5 10 -11 10 -5 0
-7 -4 -4 -10z"/>
<path d="M6390 2170 c0 -5 7 -7 15 -4 8 4 15 8 15 10 0 2 -7 4 -15 4 -8 0 -15
-4 -15 -10z"/>
<path d="M6510 2154 c0 -8 5 -12 10 -9 6 4 8 11 5 16 -9 14 -15 11 -15 -7z"/>
<path d="M3980 2156 c0 -2 7 -7 16 -10 8 -3 12 -2 9 4 -6 10 -25 14 -25 6z"/>
<path d="M6336 2142 c-3 -5 1 -9 9 -9 8 0 12 4 9 9 -3 4 -7 8 -9 8 -2 0 -6 -4
-9 -8z"/>
<path d="M3940 2129 c0 -5 5 -7 10 -4 6 3 10 8 10 11 0 2 -4 4 -10 4 -5 0 -10
-5 -10 -11z"/>
<path d="M3970 2130 c0 -5 5 -10 10 -10 6 0 10 5 10 10 0 6 -4 10 -10 10 -5 0
-10 -4 -10 -10z"/>
<path d="M4178 2133 c7 -3 16 -2 19 1 4 3 -2 6 -13 5 -11 0 -14 -3 -6 -6z"/>
<path d="M4305 2130 c-17 -8 -17 -9 7 -7 15 1 24 5 22 9 -3 4 -6 8 -7 7 -1 0
-11 -4 -22 -9z"/>
<path d="M5960 2130 c0 -5 5 -10 11 -10 5 0 7 5 4 10 -3 6 -8 10 -11 10 -2 0
-4 -4 -4 -10z"/>
<path d="M6160 2136 c0 -2 7 -7 16 -10 8 -3 12 -2 9 4 -6 10 -25 14 -25 6z"/>
<path d="M6210 2130 c-9 -6 -10 -10 -3 -10 6 0 15 5 18 10 8 12 4 12 -15 0z"/>
<path d="M4233 2103 c4 -3 5 -9 2 -13 -9 -15 10 -18 23 -4 7 8 8 14 3 14 -5 0
-15 2 -23 3 -7 2 -10 2 -5 0z"/>
<path d="M4361 2103 c-1 -7 -11 -13 -23 -13 -21 -1 -22 -1 -5 -11 22 -13 42 1
34 23 -4 9 -6 10 -6 1z"/>
<path d="M6220 2093 c0 -12 7 -23 15 -27 13 -5 14 -2 4 17 -17 32 -19 33 -19
10z"/>
<path d="M4434 2089 c-3 -5 2 -9 10 -9 9 0 18 0 21 0 3 0 6 3 8 7 3 10 -32 12
-39 2z"/>
<path d="M5955 2090 c3 -5 11 -10 16 -10 6 0 7 5 4 10 -3 6 -11 10 -16 10 -6
0 -7 -4 -4 -10z"/>
<path d="M6003 2083 c0 -9 4 -10 14 -2 7 6 13 12 13 14 0 1 -6 2 -13 2 -8 0
-14 -6 -14 -14z"/>
<path d="M5877 2073 c3 -8 -2 -13 -15 -13 -25 0 -37 -16 -21 -26 8 -4 9 -3 5
4 -5 8 1 12 14 12 12 0 19 -4 16 -8 -3 -5 1 -9 9 -9 10 0 14 9 13 27 -1 15 -7
27 -14 27 -7 0 -10 -6 -7 -14z"/>
<path d="M4588 2073 c6 -2 18 -2 25 0 6 3 1 5 -13 5 -14 0 -19 -2 -12 -5z"/>
<path d="M4641 2063 c7 -10 14 -19 15 -21 1 -2 4 4 8 13 3 9 2 13 -4 10 -6 -3
-10 -1 -10 4 0 6 -5 11 -11 11 -8 0 -7 -6 2 -17z"/>
<path d="M5207 2069 c7 -9 10 -19 6 -22 -3 -4 -1 -7 5 -7 17 0 15 16 -5 31
-16 12 -17 12 -6 -2z"/>
<path d="M5705 2069 c-11 -16 -1 -19 13 -3 7 8 8 14 3 14 -5 0 -13 -5 -16 -11z"/>
<path d="M4325 2060 c3 -5 8 -10 11 -10 2 0 4 5 4 10 0 6 -5 10 -11 10 -5 0
-7 -4 -4 -10z"/>
<path d="M4745 2061 c-3 -5 -2 -12 3 -15 5 -3 9 1 9 9 0 17 -3 19 -12 6z"/>
<path d="M4777 2050 c3 -11 9 -20 15 -20 5 0 4 9 -2 20 -6 11 -12 20 -14 20
-2 0 -2 -9 1 -20z"/>
<path d="M4815 2060 c-3 -5 -1 -10 4 -10 6 0 11 5 11 10 0 6 -2 10 -4 10 -3 0
-8 -4 -11 -10z"/>
<path d="M4856 2061 c-12 -5 -15 -10 -9 -14 6 -4 16 0 23 8 14 17 13 17 -14 6z"/>
<path d="M4900 2055 c-7 -9 -8 -15 -2 -15 5 0 12 7 16 15 3 8 4 15 2 15 -2 0
-9 -7 -16 -15z"/>
<path d="M4950 2054 c0 -8 5 -12 10 -9 6 4 8 11 5 16 -9 14 -15 11 -15 -7z"/>
<path d="M5078 2063 c7 -3 16 -2 19 1 4 3 -2 6 -13 5 -11 0 -14 -3 -6 -6z"/>
<path d="M5367 2059 c7 -7 15 -10 18 -7 3 3 -2 9 -12 12 -14 6 -15 5 -6 -5z"/>
<path d="M5910 2061 c0 -5 5 -13 10 -16 6 -3 10 -2 10 4 0 5 -4 13 -10 16 -5
3 -10 2 -10 -4z"/>
<path d="M6015 2060 c-8 -13 3 -30 21 -30 18 0 18 14 0 29 -10 8 -16 9 -21 1z"/>
<path d="M4540 2046 c7 -7 14 -6 21 1 9 9 7 12 -9 10 -14 -1 -18 -5 -12 -11z"/>
<path d="M5018 2053 c7 -3 16 -2 19 1 4 3 -2 6 -13 5 -11 0 -14 -3 -6 -6z"/>
<path d="M5260 2050 c-9 -6 -10 -10 -3 -10 6 0 15 5 18 10 8 12 4 12 -15 0z"/>
<path d="M5475 2050 c-15 -6 -10 -8 17 -7 20 1 34 4 32 6 -8 8 -29 8 -49 1z"/>
<path d="M5068 2043 c7 -3 16 -2 19 1 4 3 -2 6 -13 5 -11 0 -14 -3 -6 -6z"/>
<path d="M5778 2043 c7 -3 16 -2 19 1 4 3 -2 6 -13 5 -11 0 -14 -3 -6 -6z"/>
<path d="M4955 2020 c3 -5 8 -10 11 -10 2 0 4 5 4 10 0 6 -5 10 -11 10 -5 0
-7 -4 -4 -10z"/>
<path d="M4385 2030 c-3 -5 1 -10 10 -10 9 0 13 5 10 10 -3 6 -8 10 -10 10 -2
0 -7 -4 -10 -10z"/>
<path d="M8712 5585 c0 -16 2 -22 5 -12 2 9 2 23 0 30 -3 6 -5 -1 -5 -18z"/>
<path d="M8713 5495 c0 -22 2 -30 4 -17 2 12 2 30 0 40 -3 9 -5 -1 -4 -23z"/>
<path d="M1522 3870 c0 -14 2 -19 5 -12 2 6 2 18 0 25 -3 6 -5 1 -5 -13z"/>
<path d="M2544 3625 c0 -77 2 -107 3 -67 2 40 2 103 0 140 -2 37 -3 4 -3 -73z"/>
<path d="M7692 3630 c0 -19 2 -27 5 -17 2 9 2 25 0 35 -3 9 -5 1 -5 -18z"/>
<path d="M8687 3551 c-4 -17 -3 -21 5 -13 5 5 8 16 6 23 -3 8 -7 3 -11 -10z"/>
<path d="M1681 3543 c7 -12 15 -20 18 -17 3 2 -3 12 -13 22 -17 16 -18 16 -5
-5z"/>
<path d="M1600 3500 c-9 -6 -10 -10 -3 -10 6 0 15 5 18 10 8 12 4 12 -15 0z"/>
<path d="M1700 3499 c0 -5 5 -7 10 -4 6 3 10 8 10 11 0 2 -4 4 -10 4 -5 0 -10
-5 -10 -11z"/>
<path d="M8606 3484 c-26 -18 -17 -24 12 -8 13 6 20 14 15 17 -4 3 -17 -1 -27
-9z"/>
<path d="M8685 3491 c-3 -5 -1 -12 5 -16 5 -3 10 1 10 9 0 18 -6 21 -15 7z"/>
<path d="M1648 3462 c-4 -12 1 -18 13 -18 11 0 19 4 19 8 0 4 -5 8 -11 8 -5 0
-7 5 -4 10 3 6 2 10 -3 10 -5 0 -12 -8 -14 -18z"/>
<path d="M8691 3444 c0 -11 3 -14 6 -6 3 7 2 16 -1 19 -3 4 -6 -2 -5 -13z"/>
<path d="M1698 3443 c6 -2 10 -8 8 -12 -3 -4 4 -7 15 -7 19 0 19 1 3 13 -10 7
-23 13 -28 12 -6 0 -5 -3 2 -6z"/>
<path d="M8515 3429 c-4 -6 -4 -13 -1 -16 3 -4 6 -1 6 6 0 7 5 9 12 5 7 -4 8
-3 4 4 -9 15 -13 15 -21 1z"/>
<path d="M8470 3421 c0 -6 4 -13 10 -16 6 -3 7 1 4 9 -7 18 -14 21 -14 7z"/>
<path d="M1771 3416 c2 -2 14 -9 26 -15 18 -9 22 -9 18 2 -3 7 -15 13 -26 14
-12 1 -20 1 -18 -1z"/>
<path d="M8567 3390 c3 -11 7 -20 8 -20 1 0 5 9 8 20 3 12 0 20 -8 20 -8 0
-11 -8 -8 -20z"/>
<path d="M1713 3383 c-7 -2 -13 -9 -13 -15 0 -6 6 -5 15 2 13 11 20 11 40 0
14 -7 25 -17 25 -21 0 -4 10 -5 22 -1 20 5 18 7 -17 23 -43 19 -53 20 -72 12z"/>
<path d="M1827 3346 c-4 -10 -1 -13 8 -9 8 3 12 9 9 14 -7 12 -11 11 -17 -5z"/>
<path d="M8430 3350 c0 -5 5 -10 11 -10 5 0 7 5 4 10 -3 6 -8 10 -11 10 -2 0
-4 -4 -4 -10z"/>
<path d="M8377 3289 c4 -13 8 -18 11 -10 2 7 -1 18 -6 23 -8 8 -9 4 -5 -13z"/>
<path d="M8400 3284 c0 -8 5 -12 10 -9 6 4 8 11 5 16 -9 14 -15 11 -15 -7z"/>
<path d="M1930 3280 c0 -5 5 -10 11 -10 5 0 7 5 4 10 -3 6 -8 10 -11 10 -2 0
-4 -4 -4 -10z"/>
</g>
</svg>
